<svg width="204" height="186" viewBox="0 0 204 186" fill="none" xmlns="http://www.w3.org/2000/svg">
<path d="M185.841 185.308H18.0756C8.09189 185.308 0 177.457 0 167.771V17.5364C0 7.85053 8.09189 0 18.0756 0H120.748C128.308 0 133.673 2.71494 139.923 9.30837L152.888 23.5756C157.294 26.4103 162.464 27.9251 167.744 27.9251H185.835C195.818 27.9251 203.91 35.7756 203.91 45.4615V167.771C203.91 177.457 195.818 185.308 185.835 185.308H185.841Z" fill="#EAE0D0"/>
<path d="M18.0693 185.308H185.835C195.819 185.308 203.911 177.457 203.911 167.771V27.5364C203.911 17.8505 195.819 10 185.835 10H153.163C145.602 10 140.237 12.7149 133.987 19.3084L121.022 33.5756C116.617 36.4103 111.447 37.9251 106.167 37.9251H18.0758C8.09215 37.9251 0.000274658 45.7756 0.000274658 55.4615V167.771C0.000274658 177.457 8.09215 185.308 18.0758 185.308H18.0693Z" fill="#F7EFE1"/>
</svg>
