<svg width="118" height="39" viewBox="0 0 118 39" fill="none" xmlns="http://www.w3.org/2000/svg">
<path d="M0.860352 38.7483V32.5018H1.94929V35.4727L1.51878 35.0918H4.55767L4.12716 35.4727V32.5018H5.21609V38.7483H4.12716V35.7266L4.55767 36.1075H1.51878L1.94929 35.7266V38.7483H0.860352Z" fill="#241F21"/>
<path d="M5.57073 38.7483L7.34342 32.5018H8.6856L10.4583 38.7483H9.34402L8.00185 33.746L6.65967 38.7483H5.54541H5.57073ZM6.65967 37.2755L6.96356 36.3106H9.09078L9.39467 37.2755H6.68499H6.65967Z" fill="#241F21"/>
<path d="M11.0664 38.7482V37.758H12.4846V33.5175H11.0664V32.5272H14.9916V33.5175H13.5735V37.758H14.9916V38.7482H11.0664Z" fill="#241F21"/>
<path d="M15.954 38.7483V32.5018H17.9293C18.5877 32.5018 19.1195 32.6796 19.4994 33.0097C19.8793 33.3398 20.0565 33.7968 20.0565 34.3808C20.0565 34.6855 19.9806 34.9395 19.8539 35.168C19.7273 35.3965 19.5501 35.5743 19.3221 35.7012C19.0942 35.8282 18.8663 35.9044 18.6131 35.9297V35.8282C19.0182 35.8282 19.3728 35.9551 19.5754 36.1329C19.8033 36.3106 19.9299 36.6153 19.9552 36.9962L20.1072 38.7483H19.0183L18.8916 37.2501C18.8916 37.0216 18.841 36.8439 18.765 36.7423C18.689 36.6407 18.5877 36.5392 18.4611 36.4884C18.3345 36.4376 18.1319 36.4122 17.904 36.4122H17.0176V38.7483H15.9287H15.954ZM17.0176 35.4219H17.8787C18.2079 35.4219 18.4864 35.3457 18.6637 35.168C18.841 35.0156 18.9423 34.7617 18.9423 34.457C18.9423 34.1523 18.841 33.9238 18.6637 33.7714C18.4864 33.6191 18.2332 33.5175 17.8787 33.5175H17.0176V35.3965V35.4219Z" fill="#241F21"/>
<path d="M27.3748 38.9007C26.767 38.9007 26.2859 38.7484 25.9567 38.4691C25.6275 38.1898 25.4502 37.7835 25.4502 37.2503C25.4502 36.9709 25.5008 36.7424 25.5768 36.5139C25.6528 36.3108 25.7794 36.1076 25.982 35.9045C26.1846 35.7013 26.4125 35.5236 26.7164 35.3205C26.5898 35.1681 26.4885 35.0158 26.4125 34.8634C26.3365 34.7111 26.2606 34.5587 26.2099 34.4064C26.1593 34.254 26.1339 34.0763 26.1339 33.8985C26.1339 33.4415 26.2859 33.0606 26.5645 32.7813C26.843 32.502 27.2735 32.375 27.8053 32.375C28.3371 32.375 28.7423 32.502 29.0209 32.7559C29.2741 33.0098 29.4261 33.3399 29.4261 33.7716C29.4261 34.127 29.3248 34.4317 29.0969 34.7111C28.8943 34.9904 28.5651 35.2697 28.1092 35.549L29.1728 36.9456C29.1728 36.9456 29.3248 36.6916 29.3754 36.5139C29.4261 36.3361 29.4514 36.133 29.4767 35.9045L30.439 36.006C30.439 36.3361 30.3377 36.6662 30.2111 36.9963C30.0845 37.301 29.9326 37.5803 29.73 37.7835L30.4897 38.7484H29.3501L29.0715 38.3929C28.9196 38.5452 28.6917 38.6468 28.4384 38.7484C28.1599 38.8499 27.8307 38.9007 27.4255 38.9007H27.3748ZM27.5014 37.9358C27.7294 37.9358 27.932 37.9104 28.0839 37.8597C28.2358 37.8089 28.3625 37.7327 28.4384 37.6565L27.2482 36.0822C27.0203 36.2346 26.843 36.4123 26.7164 36.5647C26.6151 36.7424 26.5645 36.9202 26.5645 37.1487C26.5645 37.3772 26.6404 37.5804 26.7924 37.7073C26.9443 37.8597 27.1722 37.9104 27.5014 37.9104V37.9358ZM27.5774 34.8634C27.7547 34.7618 27.9066 34.6349 28.0079 34.5333C28.1092 34.4317 28.2105 34.3302 28.2612 34.2286C28.3118 34.127 28.3371 34.0001 28.3371 33.8985C28.3371 33.7208 28.2865 33.5938 28.1852 33.4922C28.0839 33.3907 27.9573 33.3399 27.78 33.3399C27.5774 33.3399 27.4508 33.3907 27.3242 33.4922C27.2229 33.5938 27.1722 33.7462 27.1722 33.9239C27.1722 34.0255 27.1722 34.1017 27.1976 34.2032C27.1976 34.3048 27.2735 34.4064 27.3242 34.5079C27.3748 34.6095 27.4761 34.7364 27.5774 34.8634Z" fill="#241F21"/>
<path d="M38.0359 38.9004C37.5801 38.9004 37.1749 38.7988 36.8457 38.6211C36.5165 38.4433 36.2379 38.1894 36.0607 37.8593C35.8581 37.5292 35.7568 37.1483 35.7314 36.6913L36.8457 36.6405C36.8964 36.9198 36.9723 37.1737 37.0736 37.3515C37.1749 37.5292 37.3269 37.6816 37.5041 37.7831C37.6814 37.8847 37.884 37.9355 38.1119 37.9355C38.3398 37.9355 38.5171 37.9101 38.669 37.8593C38.821 37.8085 38.9476 37.7069 39.0236 37.6054C39.0995 37.4784 39.1502 37.3515 39.1502 37.1737C39.1502 36.996 39.0995 36.8436 39.0236 36.7167C38.9476 36.5897 38.7957 36.4627 38.5931 36.3612C38.3905 36.2596 38.0866 36.1326 37.6814 36.0311C37.2509 35.9295 36.9217 35.8025 36.6431 35.6502C36.3645 35.4978 36.1873 35.3201 36.0353 35.0916C35.8834 34.863 35.8327 34.5837 35.8327 34.2536C35.8327 33.8728 35.9087 33.5427 36.086 33.2634C36.2633 32.984 36.4912 32.7809 36.8204 32.6286C37.1496 32.4762 37.5295 32.4 37.96 32.4C38.3905 32.4 38.7703 32.4762 39.0742 32.6539C39.3781 32.8317 39.6314 33.0602 39.8086 33.3649C39.9859 33.6696 40.0872 34.0251 40.1378 34.4568L39.0236 34.5076C38.9983 34.279 38.9223 34.0759 38.8463 33.9235C38.745 33.7458 38.6437 33.6188 38.4664 33.5427C38.3145 33.4411 38.1119 33.3903 37.9093 33.3903C37.6054 33.3903 37.3775 33.4665 37.2002 33.6188C37.023 33.7712 36.947 33.9743 36.947 34.2029C36.947 34.3806 36.9977 34.5076 37.0736 34.6345C37.1496 34.7361 37.2762 34.8377 37.4788 34.9392C37.6814 35.0408 37.9346 35.117 38.2892 35.1931C38.7703 35.3201 39.1502 35.4725 39.4288 35.6502C39.7073 35.8279 39.9099 36.0311 40.0365 36.285C40.1632 36.5389 40.2138 36.8182 40.2138 37.1483C40.2138 37.5038 40.1125 37.8085 39.9352 38.0878C39.758 38.3671 39.5047 38.5703 39.1755 38.7226C38.8463 38.875 38.4664 38.9511 38.0106 38.9511L38.0359 38.9004Z" fill="#241F21"/>
<path d="M43.0001 38.9004C42.4936 38.9004 42.0631 38.7734 41.7086 38.4941C41.354 38.2148 41.1008 37.8593 40.8982 37.3768C40.6956 36.8944 40.6196 36.3104 40.6196 35.6502C40.6196 34.99 40.7209 34.406 40.8982 33.9235C41.0755 33.4411 41.354 33.0602 41.7086 32.8063C42.0631 32.5524 42.4936 32.4 43.0001 32.4C43.5825 32.4 44.0637 32.6032 44.4689 32.984C44.8487 33.3649 45.102 33.9235 45.2286 34.6345L44.1144 34.6853C44.0384 34.2536 43.9118 33.9489 43.7092 33.7204C43.5066 33.4919 43.2787 33.3903 43.0001 33.3903C42.7215 33.3903 42.4936 33.4919 42.3163 33.6696C42.1391 33.8474 41.9871 34.1013 41.9112 34.4568C41.8099 34.7869 41.7592 35.2185 41.7592 35.701C41.7592 36.1834 41.8099 36.5897 41.9112 36.9198C42.0124 37.2499 42.1391 37.5292 42.3163 37.6815C42.4936 37.8339 42.7215 37.9355 43.0001 37.9355C43.2787 37.9355 43.5319 37.8085 43.7345 37.58C43.9371 37.3515 44.0637 36.996 44.1397 36.5389L45.2539 36.5897C45.1526 37.3261 44.8994 37.9101 44.4942 38.3163C44.089 38.7226 43.6079 38.9258 43.0001 38.9258V38.9004Z" fill="#241F21"/>
<path d="M45.5322 38.7483L47.3048 32.5018H48.647L50.4197 38.7483H49.3054L47.9633 33.746L46.6211 38.7483H45.5068H45.5322ZM46.5958 37.2755L46.8997 36.3106H49.0269L49.3308 37.2755H46.6211H46.5958Z" fill="#241F21"/>
<path d="M51.1797 38.7483V32.5018H52.2686V38.3928L51.5342 37.7326H55.1049V38.7229H51.1797V38.7483Z" fill="#241F21"/>
<path d="M56.0415 38.7483V32.5018H58.0168C58.4473 32.5018 58.8272 32.578 59.1564 32.7557C59.4856 32.9081 59.7388 33.1366 59.9161 33.4413C60.0934 33.746 60.1947 34.0761 60.1947 34.4824C60.1947 34.8887 60.0934 35.2188 59.9161 35.5235C59.7388 35.8282 59.4856 36.0313 59.1564 36.2091C58.8272 36.3614 58.4473 36.463 58.0168 36.463H57.1304V38.7736H56.0415V38.7483ZM57.1304 35.4727H57.8902C58.27 35.4727 58.5739 35.3965 58.7512 35.2188C58.9285 35.041 59.0297 34.8125 59.0297 34.5078C59.0297 34.2031 58.9285 33.9492 58.7512 33.7714C58.5486 33.6191 58.27 33.5175 57.8902 33.5175H57.1304V35.4473V35.4727Z" fill="#241F21"/>
<path d="M67.9944 38.9004C67.5386 38.9004 67.1334 38.7988 66.8042 38.6211C66.475 38.4433 66.1964 38.1894 66.0192 37.8593C65.8166 37.5292 65.7153 37.1483 65.6899 36.6913L66.8042 36.6405C66.8548 36.9198 66.9308 37.1737 67.0321 37.3515C67.1334 37.5292 67.2854 37.6816 67.4626 37.7831C67.6399 37.8847 67.8425 37.9355 68.0704 37.9355C68.2983 37.9355 68.4756 37.9101 68.6275 37.8593C68.7795 37.8085 68.9061 37.7069 68.9821 37.6054C69.058 37.4784 69.1087 37.3515 69.1087 37.1737C69.1087 36.996 69.058 36.8436 68.9821 36.7167C68.9061 36.5897 68.7542 36.4627 68.5516 36.3612C68.349 36.2596 68.0451 36.1326 67.6399 36.0311C67.2094 35.9295 66.8802 35.8025 66.6016 35.6502C66.323 35.4978 66.1458 35.3201 65.9938 35.0916C65.8419 34.863 65.7912 34.5837 65.7912 34.2536C65.7912 33.8728 65.8672 33.5427 66.0445 33.2634C66.2217 32.984 66.4497 32.7809 66.7789 32.6286C67.1081 32.4762 67.4879 32.4 67.9185 32.4C68.349 32.4 68.7288 32.4762 69.0327 32.6539C69.3366 32.8317 69.5898 33.0602 69.7671 33.3649C69.9444 33.6696 70.0457 34.0251 70.0963 34.4568L68.9821 34.5076C68.9567 34.279 68.8808 34.0759 68.8048 33.9235C68.7035 33.7458 68.6022 33.6188 68.4249 33.5427C68.273 33.4411 68.0704 33.3903 67.8678 33.3903C67.5639 33.3903 67.336 33.4665 67.1587 33.6188C66.9815 33.7712 66.9055 33.9743 66.9055 34.2029C66.9055 34.3806 66.9561 34.5076 67.0321 34.6345C67.1081 34.7361 67.2347 34.8377 67.4373 34.9392C67.6399 35.0408 67.8931 35.117 68.2477 35.1931C68.7288 35.3201 69.1087 35.4725 69.3873 35.6502C69.6658 35.8279 69.8684 36.0311 69.995 36.285C70.1217 36.5389 70.1723 36.8182 70.1723 37.1483C70.1723 37.5038 70.071 37.8085 69.8937 38.0878C69.7165 38.3671 69.4632 38.5703 69.134 38.7226C68.8048 38.875 68.4249 38.9511 67.9691 38.9511L67.9944 38.9004Z" fill="#241F21"/>
<path d="M72.9581 38.9004C72.4516 38.9004 72.0211 38.7734 71.6666 38.4941C71.312 38.2148 71.0588 37.8593 70.8562 37.3768C70.6536 36.8944 70.5776 36.3104 70.5776 35.6502C70.5776 34.99 70.6789 34.406 70.8562 33.9235C71.0335 33.4411 71.312 33.0602 71.6666 32.8063C72.0211 32.5524 72.4516 32.4 72.9581 32.4C73.5406 32.4 74.0217 32.6032 74.4269 32.984C74.8068 33.3649 75.06 33.9235 75.1866 34.6345L74.0724 34.6853C73.9964 34.2536 73.8698 33.9489 73.6672 33.7204C73.4646 33.4919 73.2367 33.3903 72.9581 33.3903C72.6795 33.3903 72.4516 33.4919 72.2744 33.6696C72.0971 33.8474 71.9451 34.1013 71.8692 34.4568C71.7679 34.7869 71.7172 35.2185 71.7172 35.701C71.7172 36.1834 71.7679 36.5897 71.8692 36.9198C71.9705 37.2499 72.0971 37.5292 72.2744 37.6815C72.4516 37.8339 72.6795 37.9355 72.9581 37.9355C73.2367 37.9355 73.4899 37.8085 73.6925 37.58C73.8951 37.3515 74.0217 36.996 74.0977 36.5389L75.2119 36.5897C75.1106 37.3261 74.8574 37.9101 74.4522 38.3163C74.047 38.7226 73.5659 38.9258 72.9581 38.9258V38.9004Z" fill="#241F21"/>
<path d="M75.9473 38.7482V37.758H77.3654V33.5175H75.9473V32.5272H79.8725V33.5175H78.4543V37.758H79.8725V38.7482H75.9473Z" fill="#241F21"/>
<path d="M81.0361 38.7483V32.5018H84.8854V33.4921H82.1251V35.1172H84.7841V36.0821H82.1251V37.7326H84.9614V38.7229H81.0361V38.7483Z" fill="#241F21"/>
<path d="M85.8486 38.7483V32.5018H87.0135L88.8875 36.9708V32.5018H89.9511V38.7483H88.7862L86.9122 34.2793V38.7483H85.8486Z" fill="#241F21"/>
<path d="M92.9391 38.9004C92.4326 38.9004 92.0021 38.7734 91.6475 38.4941C91.293 38.2148 91.0398 37.8593 90.8372 37.3768C90.6346 36.8944 90.5586 36.3104 90.5586 35.6502C90.5586 34.99 90.6599 34.406 90.8372 33.9235C91.0144 33.4411 91.293 33.0602 91.6475 32.8063C92.0021 32.5524 92.4326 32.4 92.9391 32.4C93.5215 32.4 94.0027 32.6032 94.4079 32.984C94.7877 33.3649 95.041 33.9235 95.1676 34.6345L94.0533 34.6853C93.9773 34.2536 93.8507 33.9489 93.6481 33.7204C93.4455 33.4919 93.2176 33.3903 92.9391 33.3903C92.6605 33.3903 92.4326 33.4919 92.2553 33.6696C92.078 33.8474 91.9261 34.1013 91.8501 34.4568C91.7488 34.7869 91.6982 35.2185 91.6982 35.701C91.6982 36.1834 91.7488 36.5897 91.8501 36.9198C91.9514 37.2499 92.078 37.5292 92.2553 37.6815C92.4326 37.8339 92.6605 37.9355 92.9391 37.9355C93.2176 37.9355 93.4709 37.8085 93.6735 37.58C93.8761 37.3515 94.0027 36.996 94.0786 36.5389L95.1929 36.5897C95.0916 37.3261 94.8384 37.9101 94.4332 38.3163C94.028 38.7226 93.5468 38.9258 92.9391 38.9258V38.9004Z" fill="#241F21"/>
<path d="M96.0293 38.7483V32.5018H99.8786V33.4921H97.1182V35.1172H99.7773V36.0821H97.1182V37.7326H99.9545V38.7229H96.0293V38.7483Z" fill="#241F21"/>
<path d="M107.906 38.9004C107.399 38.9004 106.969 38.7734 106.614 38.4941C106.26 38.2148 106.007 37.8593 105.804 37.3768C105.601 36.8944 105.525 36.3104 105.525 35.6502C105.525 34.99 105.627 34.406 105.804 33.9235C105.981 33.4411 106.26 33.0602 106.614 32.8063C106.969 32.5524 107.399 32.4 107.906 32.4C108.488 32.4 108.969 32.6032 109.375 32.984C109.755 33.3649 110.008 33.9235 110.134 34.6345L109.02 34.6853C108.944 34.2536 108.818 33.9489 108.615 33.7204C108.412 33.4919 108.184 33.3903 107.906 33.3903C107.627 33.3903 107.399 33.4919 107.222 33.6696C107.045 33.8474 106.893 34.1013 106.817 34.4568C106.716 34.7869 106.665 35.2185 106.665 35.701C106.665 36.1834 106.716 36.5897 106.817 36.9198C106.918 37.2499 107.045 37.5292 107.222 37.6815C107.399 37.8339 107.627 37.9355 107.906 37.9355C108.184 37.9355 108.438 37.8085 108.64 37.58C108.843 37.3515 108.969 36.996 109.045 36.5389L110.16 36.5897C110.058 37.3261 109.805 37.9101 109.4 38.3163C108.995 38.7226 108.514 38.9258 107.906 38.9258V38.9004Z" fill="#241F21"/>
<path d="M112.869 38.9005C112.363 38.9005 111.958 38.7735 111.603 38.5196C111.249 38.2657 110.995 37.9102 110.818 37.4024C110.641 36.9199 110.54 36.3359 110.54 35.6249C110.54 34.914 110.641 34.3299 110.818 33.8475C110.995 33.365 111.274 32.9842 111.603 32.7302C111.958 32.4763 112.363 32.3494 112.869 32.3494C113.376 32.3494 113.781 32.4763 114.136 32.7302C114.49 32.9842 114.743 33.3397 114.921 33.8475C115.098 34.3299 115.199 34.9393 115.199 35.6249C115.199 36.3105 115.098 36.8945 114.921 37.4024C114.743 37.8848 114.465 38.2657 114.136 38.5196C113.781 38.7735 113.376 38.9005 112.869 38.9005ZM112.869 37.9102C113.123 37.9102 113.351 37.834 113.528 37.6563C113.705 37.5039 113.857 37.25 113.933 36.8945C114.034 36.5644 114.06 36.1328 114.06 35.6249C114.06 35.1171 114.009 34.6854 113.933 34.3553C113.832 34.0252 113.705 33.7713 113.528 33.5936C113.351 33.4158 113.123 33.3397 112.869 33.3397C112.616 33.3397 112.388 33.4158 112.211 33.5936C112.034 33.7713 111.882 34.0252 111.806 34.3553C111.704 34.6854 111.679 35.1171 111.679 35.6249C111.679 36.1328 111.73 36.5644 111.806 36.8945C111.907 37.2246 112.034 37.4785 112.211 37.6563C112.388 37.834 112.616 37.9102 112.869 37.9102Z" fill="#241F21"/>
<path d="M115.983 38.748V37.5038H117.275V38.748H115.983Z" fill="#241F21"/>
<path d="M94.4583 5.40836V0.0506592H73.7686V5.40836L80.4035 4.95131V19.12C80.4035 20.5674 80.1755 21.9893 79.6944 23.3605H88.5325C88.0767 21.9893 87.8234 20.5674 87.8234 19.12V4.95131L94.433 5.40836H94.4583Z" fill="#241F21"/>
<path d="M23.678 20.4148L17.347 0.050415H6.43232L7.34398 1.44697L1.3675 20.4148C1.03829 21.4558 0.582454 22.4207 0 23.3348H7.26801H7.97709C7.77449 22.4207 7.77449 21.4812 8.02773 20.5925L8.68616 18.2818C9.95236 18.0025 11.2439 17.8502 12.5354 17.8502C13.8269 17.8502 15.0932 18.0025 16.3594 18.2564L16.9925 20.5925C17.2457 21.4812 17.2457 22.4461 17.0431 23.3348H25.0708C24.4884 22.4207 24.0072 21.4304 23.7033 20.3894L23.678 20.4148ZM14.3588 14.2445C13.4977 14.3461 12.5101 14.3715 11.6238 14.3207C11.0413 14.2953 10.4335 14.2191 9.85107 14.1176L12.3582 5.17959H12.738L15.1944 14.1176C14.9159 14.1683 14.6373 14.2191 14.3588 14.2445Z" fill="#241F21"/>
<path d="M74.4017 20.3645L68.0707 0.00012207H57.156L58.0677 1.39668L52.1165 20.3899C51.7873 21.4309 51.3315 22.3958 50.749 23.3099H58.017H58.7261C58.5235 22.3958 58.5235 21.4563 58.7768 20.5676L59.4352 18.2569C60.7014 17.9776 61.9929 17.8253 63.2844 17.8253C64.576 17.8253 65.8422 17.9776 67.1084 18.2315L67.7415 20.5676C67.9947 21.4563 67.9947 22.4212 67.7921 23.3099H75.8199C75.2374 22.3958 74.7563 21.4055 74.4524 20.3645H74.4017ZM65.0825 14.1942C64.2214 14.2958 63.2338 14.3212 62.3475 14.2704C61.765 14.245 61.1572 14.1688 60.5748 14.0673L63.0818 5.1293H63.4617L65.9181 14.0673C65.6396 14.118 65.361 14.1688 65.0825 14.1942Z" fill="#241F21"/>
<path d="M116.161 20.3645L109.83 0.00012207H98.9158L99.8274 1.39668L93.8763 20.3899C93.5471 21.4309 93.0912 22.3958 92.5088 23.3099H99.7768H100.486C100.283 22.3958 100.283 21.4563 100.537 20.5676L101.195 18.2569C102.461 17.9776 103.753 17.8253 105.044 17.8253C106.336 17.8253 107.602 17.9776 108.868 18.2315L109.501 20.5676C109.754 21.4563 109.754 22.4212 109.552 23.3099H117.58C116.997 22.3958 116.516 21.4055 116.212 20.3645H116.161ZM106.842 14.1942C105.981 14.2958 104.994 14.3212 104.107 14.2704C103.525 14.245 102.917 14.1688 102.335 14.0673L104.842 5.1293H105.221L107.678 14.0673C107.399 14.118 107.121 14.1688 106.842 14.1942Z" fill="#241F21"/>
<path d="M25.8555 0.00012207H39.6824C41.7843 0.00012207 43.5064 0.22865 44.8485 0.660313C46.1907 1.09198 47.2037 1.80295 47.8621 2.76784C48.5458 3.75813 48.8751 5.05312 48.8751 6.7036C48.8751 8.17633 48.5965 9.42054 48.0394 10.4108C47.4822 11.4265 46.6465 12.1883 45.5323 12.7215C44.418 13.2547 42.9999 13.4832 41.3032 13.4832V13.5594C42.8733 13.5594 44.1141 13.6864 45.0511 13.9657C45.9628 14.2704 46.6972 14.7528 47.229 15.4384C47.7608 16.124 48.166 17.0889 48.4192 18.3331L49.5588 23.3607H41.9869L41.0499 18.1046C40.9233 17.3682 40.746 16.8096 40.5434 16.3779C40.3408 15.9717 40.0623 15.667 39.7077 15.4892C39.3532 15.3115 38.948 15.2099 38.4162 15.2099H34.2377V19.0949C34.2377 20.5422 34.4657 21.9642 34.9468 23.3353H26.2353C26.6912 21.9642 26.9444 20.5422 26.9444 19.0949V3.75813C26.9444 2.43775 26.5899 1.14276 25.8808 0.025514L25.8555 0.00012207ZM40.822 10.1061C41.2778 9.62367 41.5311 8.86191 41.5311 7.79545C41.5311 7.18604 41.4298 6.67821 41.2272 6.29733C41.0246 5.91645 40.6954 5.63714 40.2902 5.45939C39.885 5.28165 39.3785 5.18008 38.7708 5.18008H34.2377V10.8171H38.6695C39.6571 10.8171 40.3662 10.5886 40.822 10.1061Z" fill="#241F21"/>
</svg>
