<?xml version="1.0" encoding="UTF-8"?>
<svg id="Layer_10" xmlns="http://www.w3.org/2000/svg" version="1.1" viewBox="0 0 721 600">
  <!-- Generator: Adobe Illustrator 30.0.0, SVG Export Plug-In . SVG Version: 2.1.1 Build 123)  -->
  <defs>
    <style>
      .st0 {
        fill: #6e9dd7;
      }

      .st1, .st2 {
        isolation: isolate;
      }

      .st3 {
        fill: #83b6ed;
      }

      .st4 {
        fill: #2d2d2d;
      }

      .st2 {
        fill: #a0978a;
        font-family: Sen-Medium, Sen;
        font-size: 19px;
        font-weight: 500;
        letter-spacing: .4em;
      }
    </style>
  </defs>
  <path class="st0" d="M448.12,436.39h-175.23c-10.43,0-18.88-8.27-18.88-18.48v-147.74c0-10.2,8.45-18.48,18.88-18.48h34.13c7.9,0,15.61,2.28,22.19,6.55l11.38,7.39c4.6,2.99,10,4.58,15.52,4.58h92.01c10.43,0,18.88,8.27,18.88,18.48v129.22c0,10.21-8.45,18.48-18.88,18.48h0Z"/>
  <path class="st4" d="M77.61,309.37v-89.17h35.54c3.82,0,7.54.75,11.18,2.26,3.73,1.42,7.05,3.5,9.98,6.26,3.02,2.66,5.41,5.9,7.19,9.72,1.77,3.73,2.66,7.9,2.66,12.51,0,6.12-1.46,11.49-4.39,16.1-2.93,4.53-6.92,8.07-11.98,10.65-4.97,2.57-10.51,3.86-16.64,3.86-5.15,0-9.76-.58-13.84-1.73-3.99-1.15-7.1-2.31-9.32-3.46v-10.91c2.13,1.15,5.32,2.31,9.58,3.46,4.26,1.06,8.65,1.6,13.18,1.6,6.74,0,11.93-1.69,15.57-5.06,3.73-3.37,5.59-8.21,5.59-14.51,0-3.82-1.06-7.14-3.19-9.98-2.04-2.93-4.75-5.24-8.12-6.92-3.37-1.69-6.97-2.53-10.78-2.53h-20.23v77.86h-11.98ZM192.21,311.37c-5.06,0-9.72-.89-13.98-2.66-4.17-1.86-7.85-4.39-11.05-7.59-3.11-3.28-5.5-7.01-7.19-11.18-1.69-4.26-2.53-8.74-2.53-13.44s.84-9.14,2.53-13.31c1.69-4.26,4.08-7.99,7.19-11.18,3.19-3.28,6.88-5.86,11.05-7.72,4.26-1.86,8.92-2.8,13.98-2.8s9.67.93,13.84,2.8c4.26,1.86,7.94,4.44,11.05,7.72,3.19,3.19,5.63,6.92,7.32,11.18,1.69,4.17,2.53,8.61,2.53,13.31s-.84,9.18-2.53,13.44c-1.69,4.17-4.13,7.9-7.32,11.18-3.11,3.19-6.79,5.72-11.05,7.59-4.17,1.78-8.78,2.66-13.84,2.66ZM192.21,300.71c4.79,0,8.92-1.11,12.38-3.33,3.55-2.31,6.26-5.28,8.12-8.92,1.95-3.73,2.93-7.72,2.93-11.98s-.98-8.34-2.93-11.98c-1.86-3.73-4.57-6.7-8.12-8.92-3.46-2.31-7.59-3.46-12.38-3.46s-8.83,1.15-12.38,3.46c-3.55,2.22-6.3,5.19-8.25,8.92-1.86,3.64-2.79,7.63-2.79,11.98s.93,8.25,2.79,11.98c1.95,3.64,4.7,6.61,8.25,8.92,3.55,2.22,7.68,3.33,12.38,3.33ZM244.91,309.37v-66.55h10.91v66.55h-10.91ZM255.83,269.18v-13.04c2.57-4.44,5.68-7.99,9.32-10.65,3.64-2.66,7.37-3.99,11.18-3.99,2.57,0,4.88.44,6.92,1.33v12.64c-1.33-.8-2.71-1.42-4.13-1.86s-2.88-.67-4.39-.67c-4.53,0-8.21,1.6-11.05,4.79-2.75,3.19-5.37,7.01-7.85,11.45h0ZM323.04,311.37c-3.73,0-6.97-.75-9.72-2.26-2.75-1.6-4.88-3.82-6.39-6.65-1.51-2.84-2.26-6.12-2.26-9.85v-39.53h-12.78v-3.19c4.35-1.95,7.99-5.15,10.91-9.58,2.93-4.53,5.5-10.07,7.72-16.64h5.06v19.17h21.43v10.25h-21.43v39c0,2.75.89,4.92,2.66,6.52,1.86,1.6,4.26,2.4,7.19,2.4,2.66,0,5.06-.31,7.19-.93,2.22-.71,3.99-1.46,5.32-2.26v9.58c-1.77,1.42-3.86,2.44-6.26,3.06-2.4.62-5.28.93-8.65.93v-.02Z"/>
  <path class="st4" d="M375.04,309.42l17.37-73.03c1.21-5.09,3.19-9,5.94-11.72,2.77-2.81,5.89-4.62,9.36-5.43,3.5-.9,6.84-.97,10.04-.21,2.24.53,4.2,1.32,5.87,2.35,1.67,1.04,3.02,2.27,4.05,3.7l-2.22,9.32c-1.09-1.17-2.48-2.23-4.17-3.18s-3.45-1.6-5.28-1.94c-3.22-.67-5.96-.23-8.25,1.32-2.18,1.49-3.84,4.65-4.99,9.48l-17.1,71.86-10.62-2.53h0ZM377.84,252.21l2.37-9.97,39.75,9.46-2.37,9.97-39.75-9.46ZM447.46,328.7c-4.92-1.17-9.25-3.11-12.98-5.82-3.63-2.78-6.62-6.09-8.99-9.94-2.26-3.91-3.73-8.09-4.4-12.54-.65-4.53-.44-9.09.65-13.66,1.09-4.58,2.94-8.7,5.54-12.36,2.63-3.75,5.82-6.82,9.58-9.21,3.87-2.45,8.05-4.11,12.53-4.95,4.58-.83,9.32-.66,14.24.52,4.92,1.17,9.19,3.14,12.82,5.92,3.71,2.8,6.7,6.15,8.96,10.07,2.37,3.85,3.88,8.04,4.53,12.57.68,4.45.47,8.96-.62,13.53-1.09,4.58-2.95,8.74-5.57,12.49-2.61,3.67-5.84,6.73-9.71,9.18-3.76,2.39-7.93,4-12.5,4.82-4.47.76-9.16.56-14.08-.61h0ZM449.93,318.35c4.66,1.11,8.93.98,12.81-.37,3.99-1.42,7.31-3.69,9.96-6.8,2.76-3.17,4.64-6.83,5.62-10.98,1.01-4.23.98-8.34-.08-12.33-.95-4.06-2.89-7.58-5.83-10.55-2.83-3.05-6.58-5.12-11.24-6.23-4.58-1.09-8.86-.92-12.84.5-3.97,1.34-7.33,3.59-10.09,6.77-2.65,3.11-4.49,6.78-5.49,11.01-.99,4.14-1,8.24-.05,12.3,1.06,3.99,3.05,7.52,5.96,10.59,2.94,2.98,6.7,5.01,11.27,6.1h0ZM499.21,338.96l22.18-93.23,10.62,2.53-22.18,93.23-10.62-2.53ZM560.81,270.98c-2.5-.6-4.4-2.01-5.7-4.23-1.21-2.2-1.55-4.43-1.01-6.67.55-2.33,1.86-4.16,3.91-5.5,2.16-1.4,4.49-1.81,6.99-1.21,1.64.39,3.01,1.17,4.09,2.34,1.2,1.11,2.02,2.44,2.47,4.01.47,1.48.52,3,.15,4.55-.35,1.47-1.08,2.8-2.18,4-1.11,1.2-2.45,2.06-4.04,2.6-1.48.47-3.04.51-4.68.12h0ZM538.18,348.23l15.4-64.74,10.62,2.53-15.4,64.74-10.62-2.53ZM540.99,291.03l2.37-9.97,20.85,4.96-2.37,9.97-20.85-4.96ZM600.51,365.12c-4.92-1.17-9.25-3.11-12.98-5.82-3.63-2.78-6.62-6.09-8.99-9.94-2.26-3.91-3.73-8.09-4.4-12.54-.65-4.53-.44-9.09.65-13.66s2.94-8.7,5.54-12.36c2.63-3.75,5.82-6.82,9.58-9.21,3.87-2.45,8.04-4.11,12.53-4.95,4.57-.83,9.32-.66,14.24.52,4.92,1.17,9.19,3.15,12.82,5.92,3.71,2.8,6.7,6.15,8.96,10.07,2.37,3.85,3.88,8.04,4.53,12.57.67,4.45.47,8.96-.62,13.53-1.09,4.57-2.95,8.74-5.57,12.49-2.61,3.67-5.84,6.73-9.71,9.18-3.76,2.39-7.93,4-12.5,4.82-4.47.76-9.16.56-14.08-.61h0ZM602.99,354.76c4.66,1.11,8.93.99,12.81-.37,3.99-1.42,7.31-3.69,9.96-6.8,2.76-3.17,4.64-6.83,5.62-10.98,1.01-4.23.98-8.34-.08-12.33-.95-4.06-2.9-7.57-5.83-10.55-2.83-3.04-6.58-5.12-11.24-6.23-4.57-1.09-8.86-.92-12.84.5-3.97,1.34-7.33,3.59-10.09,6.76-2.66,3.11-4.49,6.78-5.49,11.01-.99,4.14-1,8.24-.05,12.3,1.06,3.99,3.04,7.52,5.96,10.59,2.94,2.98,6.7,5.01,11.27,6.1Z"/>
  <path class="st3" d="M447.8,284.64h-174.59c-11.02,0-19.96,8.94-19.96,19.96v111.91c0,11.02,8.94,19.96,19.96,19.96h174.59c11.02,0,19.96-8.94,19.96-19.96v-111.91c0-11.02-8.94-19.96-19.96-19.96Z"/>
  <g class="st1">
    <text class="st2" transform="translate(234.47 179.25)"><tspan x="0" y="0">WELCOME TO MY</tspan></text>
  </g>
</svg>