<svg width="50" height="48" viewBox="0 0 50 48" fill="none" xmlns="http://www.w3.org/2000/svg">
<path d="M38.9943 26.8774V16.9908C38.9943 12.1319 37.9483 8.42017 32.2795 8.42017C29.5463 8.42017 27.7242 9.90484 26.9819 11.322H26.9144V8.85882H21.5493V26.8774H27.1506V17.9356C27.1506 15.5736 27.5893 13.3129 30.4911 13.3129C33.3593 13.3129 33.393 15.9785 33.393 18.0706V26.8437H38.9943V26.8774Z" fill="#458CCD"/>
<path d="M12.439 8.97559H18.0402V26.9942H12.439V8.97559Z" fill="#458CCD"/>
<path d="M15.2393 0C13.4509 0 12 1.45093 12 3.2393C12 5.02766 13.4509 6.51233 15.2393 6.51233C17.0277 6.51233 18.4786 5.02766 18.4786 3.2393C18.4786 1.45093 17.0277 0 15.2393 0Z" fill="#458CCD"/>
<path d="M2.695 45C2.607 45 2.539 44.976 2.491 44.928C2.443 44.872 2.419 44.804 2.419 44.724V36.876C2.419 36.796 2.443 36.732 2.491 36.684C2.539 36.628 2.607 36.6 2.695 36.6H3.331C3.411 36.6 3.475 36.628 3.523 36.684C3.579 36.732 3.607 36.796 3.607 36.876V43.956H7.591C7.679 43.956 7.747 43.984 7.795 44.04C7.851 44.088 7.879 44.156 7.879 44.244V44.724C7.879 44.804 7.851 44.872 7.795 44.928C7.747 44.976 7.679 45 7.591 45H2.695ZM9.30072 45C9.22072 45 9.15272 44.976 9.09672 44.928C9.04872 44.872 9.02472 44.804 9.02472 44.724V39.036C9.02472 38.956 9.04872 38.892 9.09672 38.844C9.15272 38.788 9.22072 38.76 9.30072 38.76H9.87672C9.95672 38.76 10.0207 38.788 10.0687 38.844C10.1247 38.892 10.1527 38.956 10.1527 39.036V44.724C10.1527 44.804 10.1247 44.872 10.0687 44.928C10.0207 44.976 9.95672 45 9.87672 45H9.30072ZM9.20472 37.596C9.12472 37.596 9.05672 37.572 9.00072 37.524C8.95272 37.468 8.92872 37.4 8.92872 37.32V36.672C8.92872 36.592 8.95272 36.524 9.00072 36.468C9.05672 36.412 9.12472 36.384 9.20472 36.384H9.96072C10.0407 36.384 10.1087 36.412 10.1647 36.468C10.2207 36.524 10.2487 36.592 10.2487 36.672V37.32C10.2487 37.4 10.2207 37.468 10.1647 37.524C10.1087 37.572 10.0407 37.596 9.96072 37.596H9.20472ZM12.207 45C12.127 45 12.059 44.976 12.003 44.928C11.955 44.872 11.931 44.804 11.931 44.724V39.036C11.931 38.956 11.955 38.892 12.003 38.844C12.059 38.788 12.127 38.76 12.207 38.76H12.771C12.851 38.76 12.915 38.788 12.963 38.844C13.019 38.892 13.047 38.956 13.047 39.036V39.564C13.255 39.292 13.515 39.072 13.827 38.904C14.147 38.728 14.555 38.64 15.051 38.64C15.571 38.64 16.011 38.756 16.371 38.988C16.739 39.212 17.015 39.528 17.199 39.936C17.391 40.336 17.487 40.804 17.487 41.34V44.724C17.487 44.804 17.459 44.872 17.403 44.928C17.355 44.976 17.291 45 17.211 45H16.611C16.531 45 16.463 44.976 16.407 44.928C16.359 44.872 16.335 44.804 16.335 44.724V41.4C16.335 40.84 16.199 40.404 15.927 40.092C15.655 39.772 15.255 39.612 14.727 39.612C14.231 39.612 13.831 39.772 13.527 40.092C13.231 40.404 13.083 40.84 13.083 41.4V44.724C13.083 44.804 13.055 44.872 12.999 44.928C12.951 44.976 12.887 45 12.807 45H12.207ZM19.4963 45C19.4163 45 19.3483 44.976 19.2923 44.928C19.2443 44.872 19.2203 44.804 19.2203 44.724V36.756C19.2203 36.676 19.2443 36.612 19.2923 36.564C19.3483 36.508 19.4163 36.48 19.4963 36.48H20.0603C20.1403 36.48 20.2043 36.508 20.2523 36.564C20.3083 36.612 20.3363 36.676 20.3363 36.756V40.932L22.7003 38.964C22.7963 38.884 22.8683 38.832 22.9163 38.808C22.9723 38.776 23.0603 38.76 23.1803 38.76H23.8163C23.8883 38.76 23.9483 38.784 23.9963 38.832C24.0443 38.88 24.0683 38.94 24.0683 39.012C24.0683 39.044 24.0563 39.08 24.0323 39.12C24.0163 39.16 23.9803 39.2 23.9243 39.24L21.1523 41.544L24.2243 44.532C24.3203 44.612 24.3683 44.684 24.3683 44.748C24.3683 44.82 24.3443 44.88 24.2963 44.928C24.2483 44.976 24.1883 45 24.1163 45H23.4923C23.3723 45 23.2843 44.988 23.2283 44.964C23.1723 44.932 23.1003 44.876 23.0123 44.796L20.3363 42.24V44.724C20.3363 44.804 20.3083 44.872 20.2523 44.928C20.2043 44.976 20.1403 45 20.0603 45H19.4963ZM27.5988 45.12C26.7668 45.12 26.1068 44.868 25.6188 44.364C25.1308 43.852 24.8628 43.156 24.8148 42.276C24.8068 42.172 24.8028 42.04 24.8028 41.88C24.8028 41.712 24.8068 41.576 24.8148 41.472C24.8468 40.904 24.9788 40.408 25.2108 39.984C25.4428 39.552 25.7588 39.22 26.1588 38.988C26.5668 38.756 27.0428 38.64 27.5868 38.64C28.1948 38.64 28.7028 38.768 29.1108 39.024C29.5268 39.28 29.8428 39.644 30.0588 40.116C30.2748 40.588 30.3828 41.14 30.3828 41.772V41.976C30.3828 42.064 30.3548 42.132 30.2988 42.18C30.2508 42.228 30.1868 42.252 30.1068 42.252H25.9548C25.9548 42.26 25.9548 42.276 25.9548 42.3C25.9548 42.324 25.9548 42.344 25.9548 42.36C25.9708 42.688 26.0428 42.996 26.1708 43.284C26.2988 43.564 26.4828 43.792 26.7228 43.968C26.9708 44.144 27.2588 44.232 27.5868 44.232C27.8748 44.232 28.1148 44.188 28.3068 44.1C28.4988 44.012 28.6548 43.916 28.7748 43.812C28.8948 43.7 28.9748 43.612 29.0148 43.548C29.0868 43.452 29.1428 43.396 29.1828 43.38C29.2228 43.356 29.2868 43.344 29.3748 43.344H29.9628C30.0348 43.344 30.0948 43.368 30.1428 43.416C30.1988 43.456 30.2228 43.516 30.2148 43.596C30.2068 43.716 30.1428 43.864 30.0228 44.04C29.9028 44.208 29.7308 44.376 29.5068 44.544C29.2908 44.712 29.0188 44.852 28.6908 44.964C28.3708 45.068 28.0068 45.12 27.5988 45.12ZM25.9548 41.424H29.2428V41.388C29.2428 41.028 29.1748 40.708 29.0388 40.428C28.9108 40.148 28.7228 39.928 28.4748 39.768C28.2268 39.6 27.9308 39.516 27.5868 39.516C27.2428 39.516 26.9468 39.6 26.6988 39.768C26.4588 39.928 26.2748 40.148 26.1468 40.428C26.0188 40.708 25.9548 41.028 25.9548 41.388V41.424ZM34.0977 45.12C33.6577 45.12 33.2777 45.044 32.9577 44.892C32.6377 44.732 32.3737 44.52 32.1657 44.256C31.9657 43.984 31.8137 43.676 31.7097 43.332C31.6137 42.988 31.5577 42.624 31.5417 42.24C31.5337 42.112 31.5297 41.992 31.5297 41.88C31.5297 41.768 31.5337 41.648 31.5417 41.52C31.5577 41.144 31.6137 40.784 31.7097 40.44C31.8137 40.096 31.9657 39.788 32.1657 39.516C32.3737 39.244 32.6377 39.032 32.9577 38.88C33.2777 38.72 33.6577 38.64 34.0977 38.64C34.5697 38.64 34.9617 38.724 35.2737 38.892C35.5857 39.06 35.8417 39.268 36.0417 39.516V36.756C36.0417 36.676 36.0657 36.612 36.1137 36.564C36.1697 36.508 36.2377 36.48 36.3177 36.48H36.8937C36.9737 36.48 37.0377 36.508 37.0857 36.564C37.1417 36.612 37.1697 36.676 37.1697 36.756V44.724C37.1697 44.804 37.1417 44.872 37.0857 44.928C37.0377 44.976 36.9737 45 36.8937 45H36.3537C36.2657 45 36.1977 44.976 36.1497 44.928C36.1017 44.872 36.0777 44.804 36.0777 44.724V44.22C35.8777 44.476 35.6177 44.692 35.2977 44.868C34.9777 45.036 34.5777 45.12 34.0977 45.12ZM34.3497 44.148C34.7497 44.148 35.0697 44.056 35.3097 43.872C35.5497 43.688 35.7297 43.456 35.8497 43.176C35.9697 42.888 36.0337 42.596 36.0417 42.3C36.0497 42.172 36.0537 42.02 36.0537 41.844C36.0537 41.66 36.0497 41.504 36.0417 41.376C36.0337 41.096 35.9657 40.82 35.8377 40.548C35.7177 40.276 35.5337 40.052 35.2857 39.876C35.0457 39.7 34.7337 39.612 34.3497 39.612C33.9417 39.612 33.6177 39.704 33.3777 39.888C33.1377 40.064 32.9657 40.3 32.8617 40.596C32.7577 40.884 32.6977 41.196 32.6817 41.532C32.6737 41.764 32.6737 41.996 32.6817 42.228C32.6977 42.564 32.7577 42.88 32.8617 43.176C32.9657 43.464 33.1377 43.7 33.3777 43.884C33.6177 44.06 33.9417 44.148 34.3497 44.148ZM39.3864 45C39.2984 45 39.2304 44.976 39.1824 44.928C39.1344 44.872 39.1104 44.804 39.1104 44.724V36.876C39.1104 36.796 39.1344 36.732 39.1824 36.684C39.2304 36.628 39.2984 36.6 39.3864 36.6H40.0224C40.1104 36.6 40.1784 36.628 40.2264 36.684C40.2744 36.732 40.2984 36.796 40.2984 36.876V44.724C40.2984 44.804 40.2744 44.872 40.2264 44.928C40.1784 44.976 40.1104 45 40.0224 45H39.3864ZM42.5117 45C42.4317 45 42.3637 44.976 42.3077 44.928C42.2597 44.872 42.2357 44.804 42.2357 44.724V39.036C42.2357 38.956 42.2597 38.892 42.3077 38.844C42.3637 38.788 42.4317 38.76 42.5117 38.76H43.0757C43.1557 38.76 43.2197 38.788 43.2677 38.844C43.3237 38.892 43.3517 38.956 43.3517 39.036V39.564C43.5597 39.292 43.8197 39.072 44.1317 38.904C44.4517 38.728 44.8597 38.64 45.3557 38.64C45.8757 38.64 46.3157 38.756 46.6757 38.988C47.0437 39.212 47.3197 39.528 47.5037 39.936C47.6957 40.336 47.7917 40.804 47.7917 41.34V44.724C47.7917 44.804 47.7637 44.872 47.7077 44.928C47.6597 44.976 47.5957 45 47.5157 45H46.9157C46.8357 45 46.7677 44.976 46.7117 44.928C46.6637 44.872 46.6397 44.804 46.6397 44.724V41.4C46.6397 40.84 46.5037 40.404 46.2317 40.092C45.9597 39.772 45.5597 39.612 45.0317 39.612C44.5357 39.612 44.1357 39.772 43.8317 40.092C43.5357 40.404 43.3877 40.84 43.3877 41.4V44.724C43.3877 44.804 43.3597 44.872 43.3037 44.928C43.2557 44.976 43.1917 45 43.1117 45H42.5117Z" fill="#2D2D2D"/>
</svg>
