<?xml version="1.0" encoding="UTF-8"?>
<svg id="Layer_1" xmlns="http://www.w3.org/2000/svg" version="1.1" viewBox="0 0 1395.37 751.72">
  <!-- Generator: Adobe Illustrator 30.0.0, SVG Export Plug-In . SVG Version: 2.1.1 Build 123)  -->
  <defs>
    <style>
      .st0 {
        fill: #efe7da;
      }

      .st1 {
        fill: #fff8ee;
      }
    </style>
  </defs>
  <path class="st0" d="M1367.87,727.52H27.13c-10.77,0-19.51-8.69-19.51-19.4l-.24-688.72C7.37,8.69,16.11,0,26.88,0h137.84c8.16,0,16.13,2.39,22.93,6.88l11.76,7.76c4.75,3.14,10.33,4.81,16.03,4.81h1152.18c10.77,0,19.51,8.69,19.51,19.4l.24,669.26c0,10.72-8.73,19.4-19.51,19.4h.01Z"/>
  <path class="st1" d="M19.51,751.72h1356.1c10.78,0,19.52-8.56,19.52-19.13l.24-634.63c0-10.57-8.74-19.13-19.52-19.13h-137.93c-8.16,0-16.14,2.36-22.94,6.78l-11.76,7.65c-4.76,3.09-10.34,4.74-16.05,4.74H19.76C8.98,98,.24,106.57.24,117.13l-.24,615.45c0,10.57,8.74,19.13,19.52,19.13h0Z"/>
</svg>