<svg width="48" height="48" viewBox="0 0 48 48" fill="none" xmlns="http://www.w3.org/2000/svg">
<path d="M30.9189 9.84419C29.9398 9.84419 29.0009 9.45526 28.3086 8.76296C27.6163 8.07065 27.2273 7.13169 27.2273 6.15262V0H13.6916C12.7125 0 11.7735 0.388933 11.0812 1.08124C10.3889 1.77354 10 2.71251 10 3.69157V23.3335C10 24.3126 10.3889 25.2516 11.0812 25.9439C11.7735 26.6362 12.7125 27.0251 13.6916 27.0251H33.38C34.359 27.0251 35.298 26.6362 35.9903 25.9439C36.6826 25.2516 37.0715 24.3126 37.0715 23.3335V9.84419H30.9189ZM19.8442 6.15262C20.5743 6.15262 21.288 6.36913 21.8951 6.77476C22.5022 7.1804 22.9754 7.75694 23.2548 8.43149C23.5342 9.10604 23.6073 9.84829 23.4648 10.5644C23.3224 11.2805 22.9708 11.9383 22.4545 12.4545C21.9383 12.9708 21.2805 13.3224 20.5644 13.4648C19.8483 13.6073 19.106 13.5342 18.4315 13.2548C17.7569 12.9754 17.1804 12.5022 16.7748 11.8951C16.3691 11.288 16.1526 10.5743 16.1526 9.84419C16.1526 8.86513 16.5416 7.92616 17.2339 7.23386C17.9262 6.54155 18.8651 6.15262 19.8442 6.15262ZM14.9221 18.4579C14.9221 17.4788 15.311 16.5398 16.0033 15.8475C16.6956 15.1552 17.6346 14.7663 18.6137 14.7663H21.0747C22.0538 14.7663 22.9927 15.1552 23.6851 15.8475C24.3774 16.5398 24.7663 17.4788 24.7663 18.4579V20.9189C24.7663 21.2453 24.6366 21.5583 24.4059 21.789C24.1751 22.0198 23.8621 22.1494 23.5358 22.1494H16.1526C15.8263 22.1494 15.5133 22.0198 15.2825 21.789C15.0517 21.5583 14.9221 21.2453 14.9221 20.9189V18.4579ZM30.9189 22.1494H28.4579C28.1315 22.1494 27.8185 22.0198 27.5877 21.789C27.357 21.5583 27.2273 21.2453 27.2273 20.9189C27.2273 20.5926 27.357 20.2796 27.5877 20.0488C27.8185 19.818 28.1315 19.6884 28.4579 19.6884H30.9189C31.2453 19.6884 31.5583 19.818 31.789 20.0488C32.0198 20.2796 32.1494 20.5926 32.1494 20.9189C32.1494 21.2453 32.0198 21.5583 31.789 21.789C31.5583 22.0198 31.2453 22.1494 30.9189 22.1494ZM30.9189 15.9968H28.4579C28.1315 15.9968 27.8185 15.8672 27.5877 15.6364C27.357 15.4056 27.2273 15.0926 27.2273 14.7663C27.2273 14.4399 27.357 14.1269 27.5877 13.8962C27.8185 13.6654 28.1315 13.5358 28.4579 13.5358H30.9189C31.2453 13.5358 31.5583 13.6654 31.789 13.8962C32.0198 14.1269 32.1494 14.4399 32.1494 14.7663C32.1494 15.0926 32.0198 15.4056 31.789 15.6364C31.5583 15.8672 31.2453 15.9968 30.9189 15.9968Z" fill="#458CCD"/>
<path d="M30.9185 6.66944H36.3574L29.688 0V5.43892C29.688 5.76527 29.8176 6.07826 30.0484 6.30903C30.2792 6.5398 30.5922 6.66944 30.9185 6.66944Z" fill="#458CCD"/>
<path d="M2.70867 45C2.62067 45 2.55267 44.976 2.50467 44.928C2.45667 44.872 2.43267 44.804 2.43267 44.724V36.888C2.43267 36.8 2.45667 36.732 2.50467 36.684C2.55267 36.628 2.62067 36.6 2.70867 36.6H5.63667C6.54067 36.6 7.25667 36.812 7.78467 37.236C8.31267 37.66 8.57667 38.288 8.57667 39.12C8.57667 39.736 8.42067 40.24 8.10867 40.632C7.80467 41.016 7.38867 41.284 6.86067 41.436L8.70867 44.628C8.73267 44.676 8.74467 44.72 8.74467 44.76C8.74467 44.824 8.71667 44.88 8.66067 44.928C8.61267 44.976 8.55667 45 8.49267 45H7.91667C7.78067 45 7.68067 44.964 7.61667 44.892C7.55267 44.82 7.49667 44.748 7.44867 44.676L5.70867 41.628H3.60867V44.724C3.60867 44.804 3.58067 44.872 3.52467 44.928C3.47667 44.976 3.40867 45 3.32067 45H2.70867ZM3.60867 40.608H5.58867C6.18867 40.608 6.63667 40.484 6.93267 40.236C7.22867 39.98 7.37667 39.604 7.37667 39.108C7.37667 38.62 7.22867 38.248 6.93267 37.992C6.64467 37.736 6.19667 37.608 5.58867 37.608H3.60867V40.608ZM12.5656 45.12C11.7336 45.12 11.0736 44.868 10.5856 44.364C10.0976 43.852 9.82964 43.156 9.78164 42.276C9.77364 42.172 9.76964 42.04 9.76964 41.88C9.76964 41.712 9.77364 41.576 9.78164 41.472C9.81364 40.904 9.94564 40.408 10.1776 39.984C10.4096 39.552 10.7256 39.22 11.1256 38.988C11.5336 38.756 12.0096 38.64 12.5536 38.64C13.1616 38.64 13.6696 38.768 14.0776 39.024C14.4936 39.28 14.8096 39.644 15.0256 40.116C15.2416 40.588 15.3496 41.14 15.3496 41.772V41.976C15.3496 42.064 15.3216 42.132 15.2656 42.18C15.2176 42.228 15.1536 42.252 15.0736 42.252H10.9216C10.9216 42.26 10.9216 42.276 10.9216 42.3C10.9216 42.324 10.9216 42.344 10.9216 42.36C10.9376 42.688 11.0096 42.996 11.1376 43.284C11.2656 43.564 11.4496 43.792 11.6896 43.968C11.9376 44.144 12.2256 44.232 12.5536 44.232C12.8416 44.232 13.0816 44.188 13.2736 44.1C13.4656 44.012 13.6216 43.916 13.7416 43.812C13.8616 43.7 13.9416 43.612 13.9816 43.548C14.0536 43.452 14.1096 43.396 14.1496 43.38C14.1896 43.356 14.2536 43.344 14.3416 43.344H14.9296C15.0016 43.344 15.0616 43.368 15.1096 43.416C15.1656 43.456 15.1896 43.516 15.1816 43.596C15.1736 43.716 15.1096 43.864 14.9896 44.04C14.8696 44.208 14.6976 44.376 14.4736 44.544C14.2576 44.712 13.9856 44.852 13.6576 44.964C13.3376 45.068 12.9736 45.12 12.5656 45.12ZM10.9216 41.424H14.2096V41.388C14.2096 41.028 14.1416 40.708 14.0056 40.428C13.8776 40.148 13.6896 39.928 13.4416 39.768C13.1936 39.6 12.8976 39.516 12.5536 39.516C12.2096 39.516 11.9136 39.6 11.6656 39.768C11.4256 39.928 11.2416 40.148 11.1136 40.428C10.9856 40.708 10.9216 41.028 10.9216 41.388V41.424ZM18.9445 45.12C18.4965 45.12 18.1125 45.064 17.7925 44.952C17.4725 44.84 17.2125 44.704 17.0125 44.544C16.8125 44.384 16.6605 44.224 16.5565 44.064C16.4605 43.904 16.4085 43.776 16.4005 43.68C16.3925 43.592 16.4205 43.524 16.4845 43.476C16.5485 43.428 16.6125 43.404 16.6765 43.404H17.2165C17.2565 43.404 17.2885 43.412 17.3125 43.428C17.3445 43.436 17.3845 43.468 17.4325 43.524C17.5365 43.636 17.6525 43.748 17.7805 43.86C17.9085 43.972 18.0645 44.064 18.2485 44.136C18.4405 44.208 18.6765 44.244 18.9565 44.244C19.3645 44.244 19.7005 44.168 19.9645 44.016C20.2285 43.856 20.3605 43.624 20.3605 43.32C20.3605 43.12 20.3045 42.96 20.1925 42.84C20.0885 42.72 19.8965 42.612 19.6165 42.516C19.3445 42.42 18.9685 42.32 18.4885 42.216C18.0085 42.104 17.6285 41.968 17.3485 41.808C17.0685 41.64 16.8685 41.444 16.7485 41.22C16.6285 40.988 16.5685 40.728 16.5685 40.44C16.5685 40.144 16.6565 39.86 16.8325 39.588C17.0085 39.308 17.2645 39.08 17.6005 38.904C17.9445 38.728 18.3725 38.64 18.8845 38.64C19.3005 38.64 19.6565 38.692 19.9525 38.796C20.2485 38.9 20.4925 39.032 20.6845 39.192C20.8765 39.344 21.0205 39.496 21.1165 39.648C21.2125 39.8 21.2645 39.928 21.2725 40.032C21.2805 40.112 21.2565 40.18 21.2005 40.236C21.1445 40.284 21.0805 40.308 21.0085 40.308H20.5045C20.4485 40.308 20.4005 40.296 20.3605 40.272C20.3285 40.248 20.2965 40.22 20.2645 40.188C20.1845 40.084 20.0885 39.98 19.9765 39.876C19.8725 39.772 19.7325 39.688 19.5565 39.624C19.3885 39.552 19.1645 39.516 18.8845 39.516C18.4845 39.516 18.1845 39.6 17.9845 39.768C17.7845 39.936 17.6845 40.148 17.6845 40.404C17.6845 40.556 17.7285 40.692 17.8165 40.812C17.9045 40.932 18.0725 41.04 18.3205 41.136C18.5685 41.232 18.9365 41.336 19.4245 41.448C19.9525 41.552 20.3685 41.692 20.6725 41.868C20.9765 42.044 21.1925 42.248 21.3205 42.48C21.4485 42.712 21.5125 42.98 21.5125 43.284C21.5125 43.62 21.4165 43.928 21.2245 44.208C21.0325 44.488 20.7445 44.712 20.3605 44.88C19.9765 45.04 19.5045 45.12 18.9445 45.12ZM25.2297 45.12C24.7177 45.12 24.2817 45.008 23.9217 44.784C23.5697 44.552 23.3017 44.232 23.1177 43.824C22.9337 43.416 22.8417 42.948 22.8417 42.42V39.036C22.8417 38.956 22.8657 38.892 22.9137 38.844C22.9697 38.788 23.0377 38.76 23.1177 38.76H23.7177C23.7977 38.76 23.8617 38.788 23.9097 38.844C23.9657 38.892 23.9937 38.956 23.9937 39.036V42.36C23.9937 43.552 24.5137 44.148 25.5537 44.148C26.0497 44.148 26.4457 43.992 26.7417 43.68C27.0457 43.36 27.1977 42.92 27.1977 42.36V39.036C27.1977 38.956 27.2217 38.892 27.2697 38.844C27.3257 38.788 27.3937 38.76 27.4737 38.76H28.0737C28.1537 38.76 28.2177 38.788 28.2657 38.844C28.3137 38.892 28.3377 38.956 28.3377 39.036V44.724C28.3377 44.804 28.3137 44.872 28.2657 44.928C28.2177 44.976 28.1537 45 28.0737 45H27.5097C27.4297 45 27.3617 44.976 27.3057 44.928C27.2577 44.872 27.2337 44.804 27.2337 44.724V44.196C27.0177 44.476 26.7537 44.7 26.4417 44.868C26.1377 45.036 25.7337 45.12 25.2297 45.12ZM30.3964 45C30.3164 45 30.2484 44.976 30.1924 44.928C30.1444 44.872 30.1204 44.804 30.1204 44.724V39.036C30.1204 38.956 30.1444 38.892 30.1924 38.844C30.2484 38.788 30.3164 38.76 30.3964 38.76H30.9364C31.0164 38.76 31.0804 38.788 31.1284 38.844C31.1844 38.892 31.2124 38.956 31.2124 39.036V39.456C31.3964 39.208 31.6284 39.012 31.9084 38.868C32.1884 38.716 32.5244 38.64 32.9164 38.64C33.8204 38.632 34.4604 39 34.8364 39.744C35.0204 39.408 35.2884 39.14 35.6404 38.94C35.9924 38.74 36.3924 38.64 36.8404 38.64C37.2564 38.64 37.6324 38.736 37.9684 38.928C38.3124 39.12 38.5804 39.412 38.7724 39.804C38.9724 40.188 39.0724 40.672 39.0724 41.256V44.724C39.0724 44.804 39.0444 44.872 38.9884 44.928C38.9404 44.976 38.8764 45 38.7964 45H38.2324C38.1524 45 38.0844 44.976 38.0284 44.928C37.9804 44.872 37.9564 44.804 37.9564 44.724V41.364C37.9564 40.916 37.8924 40.564 37.7644 40.308C37.6364 40.052 37.4644 39.872 37.2484 39.768C37.0324 39.664 36.7964 39.612 36.5404 39.612C36.3324 39.612 36.1204 39.664 35.9044 39.768C35.6884 39.872 35.5084 40.052 35.3644 40.308C35.2284 40.564 35.1604 40.916 35.1604 41.364V44.724C35.1604 44.804 35.1324 44.872 35.0764 44.928C35.0284 44.976 34.9644 45 34.8844 45H34.3204C34.2404 45 34.1724 44.976 34.1164 44.928C34.0684 44.872 34.0444 44.804 34.0444 44.724V41.364C34.0444 40.916 33.9764 40.564 33.8404 40.308C33.7044 40.052 33.5284 39.872 33.3124 39.768C33.0964 39.664 32.8684 39.612 32.6284 39.612C32.4204 39.612 32.2084 39.664 31.9924 39.768C31.7764 39.872 31.5964 40.052 31.4524 40.308C31.3164 40.564 31.2484 40.912 31.2484 41.352V44.724C31.2484 44.804 31.2204 44.872 31.1644 44.928C31.1164 44.976 31.0524 45 30.9724 45H30.3964ZM43.2805 45.12C42.4485 45.12 41.7885 44.868 41.3005 44.364C40.8125 43.852 40.5445 43.156 40.4965 42.276C40.4885 42.172 40.4845 42.04 40.4845 41.88C40.4845 41.712 40.4885 41.576 40.4965 41.472C40.5285 40.904 40.6605 40.408 40.8925 39.984C41.1245 39.552 41.4405 39.22 41.8405 38.988C42.2485 38.756 42.7245 38.64 43.2685 38.64C43.8765 38.64 44.3845 38.768 44.7925 39.024C45.2085 39.28 45.5245 39.644 45.7405 40.116C45.9565 40.588 46.0645 41.14 46.0645 41.772V41.976C46.0645 42.064 46.0365 42.132 45.9805 42.18C45.9325 42.228 45.8685 42.252 45.7885 42.252H41.6365C41.6365 42.26 41.6365 42.276 41.6365 42.3C41.6365 42.324 41.6365 42.344 41.6365 42.36C41.6525 42.688 41.7245 42.996 41.8525 43.284C41.9805 43.564 42.1645 43.792 42.4045 43.968C42.6525 44.144 42.9405 44.232 43.2685 44.232C43.5565 44.232 43.7965 44.188 43.9885 44.1C44.1805 44.012 44.3365 43.916 44.4565 43.812C44.5765 43.7 44.6565 43.612 44.6965 43.548C44.7685 43.452 44.8245 43.396 44.8645 43.38C44.9045 43.356 44.9685 43.344 45.0565 43.344H45.6445C45.7165 43.344 45.7765 43.368 45.8245 43.416C45.8805 43.456 45.9045 43.516 45.8965 43.596C45.8885 43.716 45.8245 43.864 45.7045 44.04C45.5845 44.208 45.4125 44.376 45.1885 44.544C44.9725 44.712 44.7005 44.852 44.3725 44.964C44.0525 45.068 43.6885 45.12 43.2805 45.12ZM41.6365 41.424H44.9245V41.388C44.9245 41.028 44.8565 40.708 44.7205 40.428C44.5925 40.148 44.4045 39.928 44.1565 39.768C43.9085 39.6 43.6125 39.516 43.2685 39.516C42.9245 39.516 42.6285 39.6 42.3805 39.768C42.1405 39.928 41.9565 40.148 41.8285 40.428C41.7005 40.708 41.6365 41.028 41.6365 41.388V41.424Z" fill="#2D2D2D"/>
</svg>
