<svg width="118" height="56" viewBox="0 0 118 56" fill="none" xmlns="http://www.w3.org/2000/svg">
<path d="M10.2163 38.7941C10.2163 38.7941 0.907279 40.4098 0.0333044 35.7582C-0.351934 33.142 2.64948 30.3936 6.72611 30.7443C8.37631 30.9398 14.7759 36.1779 18.6225 35.143C22.4691 34.108 27.0575 27.3749 20.0025 23.8733C13.7007 20.5844 8.41656 16.9217 13.1084 11.3732C17.8003 5.82458 26.0915 0.32199 34.0665 0C37.1945 0.0517485 40.2649 2.09869 39.2931 4.52512C37.7292 6.6238 36.194 8.64199 34.5093 8.07276C32.8246 7.50353 32.4393 6.33056 33.2041 5.56584C33.6871 4.97935 33.8136 4.04213 31.9334 4.22038C30.0532 4.39862 19.3125 6.8423 19.738 13.9721C20.0542 17.951 31.3296 21.3261 31.1801 25.4775C31.0306 29.6289 26.5228 31.7391 26.747 32.8488C26.908 33.3375 30.2774 31.6413 31.3526 31.1813C32.2036 29.9049 33.5778 26.1502 35.2165 26.1502C36.424 26.4205 37.3899 26.5527 37.2865 27.6509C37.183 28.7491 37.2577 31.5723 39.0574 31.3826C40.8571 31.1928 42.9788 27.7602 43.5135 27.0357C44.0483 26.3112 44.1575 25.88 45.0947 26.2307C46.0319 26.5815 46.1124 26.7425 45.8997 27.8694C45.687 28.9964 46.4114 32.1128 49.2576 31.8138C51.0055 31.5206 51.8335 31.2216 52.1038 30.2326C52.374 29.2436 54.5934 15.9328 57.0601 10.5107C59.4175 5.46809 60.4295 5.12885 61.8727 5.23235C63.3159 5.33584 65.0696 8.13601 61.8727 15.2888C58.9288 20.6534 53.5067 27.1737 53.754 32.3945C53.823 33.5158 57.3649 29.8014 58.3826 28.7147C59.4003 27.6279 60.2053 26.6447 60.8723 28.3984C61.5392 30.1521 61.89 34.8152 66.3058 33.7285C66.8693 32.5383 69.3935 27.2772 74.5799 25.4545C76.2301 24.8565 77.702 23.3846 80.1917 25.0003C81.1749 25.8052 80.0192 28.4042 78.7197 28.5077C77.4203 28.6112 76.0173 25.8052 74.4764 26.754C72.9354 27.7027 70.4457 30.7846 72.3719 32.153C74.2981 33.5215 75.8103 30.9283 77.104 30.1176C78.3977 29.3069 79.2085 29.0999 78.6105 30.8881C78.0125 32.6763 79.0647 35.166 82.5721 32.6418C83.6243 30.9916 85.2688 27.5359 91.2831 25.2993C94.0085 24.362 97.6022 23.6548 97.2917 26.064C96.9812 28.4732 93.3588 29.3471 92.3353 27.5934C91.7948 26.685 90.3516 26.1215 88.7992 28.3582C87.2467 30.5948 88.5462 33.3375 91.0071 32.1243C92.3353 30.8766 92.3641 29.8301 94.7445 29.2954C95.8197 29.1804 94.917 31.0491 95.1412 31.9576C95.3655 32.866 96.0497 34.2805 98.2289 32.6648C100.408 31.0491 102.524 26.0755 109.125 24.7933C112.598 24.1493 115.432 24.592 113.414 26.9897C111.132 28.3064 108.878 28.7204 108.147 28.7204C107.417 28.7204 109.119 26.0812 107.699 26.777C106.279 27.4727 104.019 31.4976 106.21 32.153C107.423 32.3255 108.636 29.6174 110.028 29.4104C111.419 29.2034 112.839 28.6802 112.212 29.9681C111.586 31.2561 109.786 33.924 111.73 33.717C113.012 32.8488 113.983 31.1468 115.685 31.0088C117.387 30.8708 118.394 31.0433 116.726 32.3255C115.059 33.6078 109.982 36.4079 109.522 39.0643C109.062 41.7208 108.073 55.3766 102.99 55.9056C97.9069 56.4346 96.7224 52.082 100.483 45.4812C103.122 41.6575 106.905 39.1678 106.871 37.1842C106.836 35.2005 106.946 35.3845 105.646 36.1032C104.347 36.8219 101.104 38.6274 98.7291 36.3217C98.3669 35.8157 97.6137 35.5282 96.2797 36.5402C94.9457 37.5521 93.2898 38.3801 91.1624 37.5464C90.0066 36.9714 90.7656 34.9532 89.9721 34.9877C89.1787 35.0222 87.3445 37.9086 84.2453 37.2244C81.1462 36.5402 82.6986 34.775 81.2554 35.4592C79.8122 36.1434 79.312 38.3801 76.0691 37.6556C74.3384 37.0807 75.0628 34.016 73.8324 34.591C72.6019 35.166 71.3082 38.2996 68.0308 37.5809C66.5531 37.2187 66.5531 35.3442 65.2536 35.9594C63.9542 36.5747 61.6485 37.5809 59.5958 36.6782C57.5431 35.7754 57.5431 31.7046 56.0999 32.9695C54.6567 34.2345 53.1445 36.4999 51.9543 36.4999C50.7641 36.4999 52.2073 33.2225 50.1143 34.3035C48.0214 35.3845 46.6184 37.3279 42.6568 36.5402C42.6568 36.5402 41.0353 36.2872 40.8168 33.9125C39.4829 34.1655 36.4815 37.2071 33.3766 36.4999C30.2717 35.7927 31.3699 33.4928 29.7599 34.0792C28.15 34.6657 15.8683 39.1218 10.2163 38.7999V38.7941Z" fill="#242021"/>
<path d="M94.0082 45.1996C94.0082 45.1996 35.5785 41.3185 36.7169 45.1996C30.9383 44.7281 24.4985 42.2614 29.3284 41.3185C34.1582 40.3755 72.5096 38.57 94.0082 45.1996Z" fill="#242021"/>
</svg>
